HIERARCHY
ROOT Hips
{
	OFFSET 0.000000 0.000000 0.000000
	CHANNELS 6 Xposition Yposition Zposition Xrotation Yrotation Zrotation
	JOINT LeftUpLeg_virtual
	{
		OFFSET 0.000000 0.000000 0.000000
		CHANNELS 3 Xrotation Yrotation Zrotation
		JOINT LeftUpLeg
		{
			OFFSET 10.205400 -3.823500 0.155100
			CHANNELS 3 Xrotation Yrotation Zrotation
			JOINT LeftLeg
			{
				OFFSET 0.708757 -12.982077 0.567790
				CHANNELS 3 Xrotation Yrotation Zrotation
				JOINT LeftFoot
				{
					OFFSET -0.708756 -10.717838 -2.184338
					CHANNELS 3 Xrotation Yrotation Zrotation
					JOINT LeftToeBase
					{
						OFFSET 0.108149 -7.191104 7.560241
						CHANNELS 3 Xrotation Yrotation Zrotation
						JOINT LeftToe_End
						{
							OFFSET 0.070230 0.081724 4.490308
							CHANNELS 3 Xrotation Yrotation Zrotation
							End Site
							{
								OFFSET 0 0 0
							}
						}
					}
				}
			}
		}
	}
	JOINT RightUpLeg_virtual
	{
		OFFSET 0.000000 0.000000 0.000000
		CHANNELS 3 Xrotation Yrotation Zrotation
		JOINT RightUpLeg
		{
			OFFSET -10.205400 -3.823500 0.005500
			CHANNELS 3 Xrotation Yrotation Zrotation
			JOINT RightLeg
			{
				OFFSET -0.708756 -12.982134 0.610632
				CHANNELS 3 Xrotation Yrotation Zrotation
				JOINT RightFoot
				{
					OFFSET 0.708754 -10.717769 -1.945823
					CHANNELS 3 Xrotation Yrotation Zrotation
					JOINT RightToeBase
					{
						OFFSET -0.108140 -7.191069 7.372968
						CHANNELS 3 Xrotation Yrotation Zrotation
						JOINT RightToe_End
						{
							OFFSET -0.070227 0.081735 4.479403
							CHANNELS 3 Xrotation Yrotation Zrotation
							End Site
							{
								OFFSET 0 0 0
							}
						}
					}
				}
			}
		}
	}
	JOINT Spine_virtual
	{
		OFFSET 0.000000 0.000000 0.000000
		CHANNELS 3 Xrotation Yrotation Zrotation
		JOINT Spine
		{
			OFFSET 0.000000 6.876099 0.125700
			CHANNELS 3 Xrotation Yrotation Zrotation
			JOINT Spine1
			{
				OFFSET 0.000000 5.730043 0.104720
				CHANNELS 3 Xrotation Yrotation Zrotation
				JOINT Spine1_split
				{
					OFFSET 0.000000 5.730043 0.104720
					CHANNELS 3 Xrotation Yrotation Zrotation
					JOINT Spine2
					{
						OFFSET 0.000000 5.730043 0.104720
						CHANNELS 3 Xrotation Yrotation Zrotation
						JOINT Neck_virtual
						{
							OFFSET 0.000000 0.000000 0.000000
							CHANNELS 3 Xrotation Yrotation Zrotation
							JOINT Neck
							{
								OFFSET 0.000000 10.314075 0.188496
								CHANNELS 3 Xrotation Yrotation Zrotation
								JOINT Head
								{
									OFFSET 0.000000 7.643700 -2.377400
									CHANNELS 3 Xrotation Yrotation Zrotation
									JOINT HeadTop_End
									{
										OFFSET 0.000000 43.788605 -13.619600
										CHANNELS 3 Xrotation Yrotation Zrotation
										End Site
										{
											OFFSET 0 0 0
										}
									}
								}
							}
						}
						JOINT LeftShoulder_virtual
						{
							OFFSET 0.000000 0.000000 0.000000
							CHANNELS 3 Xrotation Yrotation Zrotation
							JOINT LeftShoulder
							{
								OFFSET 2.196100 4.412489 0.087492
								CHANNELS 3 Xrotation Yrotation Zrotation
								JOINT LeftShoulder_split
								{
									OFFSET 2.196100 4.412489 0.087492
									CHANNELS 3 Xrotation Yrotation Zrotation
									JOINT LeftArm
									{
										OFFSET 8.771219 -2.981674 -0.026999
										CHANNELS 3 Xrotation Yrotation Zrotation
										JOINT LeftForeArm
										{
											OFFSET 8.512804 0.000000 -0.000000
											CHANNELS 3 Xrotation Yrotation Zrotation
											JOINT LeftHand
											{
												OFFSET 18.484802 0.000000 -0.000000
												CHANNELS 3 Xrotation Yrotation Zrotation
												End Site
												{
													OFFSET 0 0 0
												}
											}
										}
									}
								}
							}
						}
						JOINT RightShoulder_virtual
						{
							OFFSET 0.000000 0.000000 0.000000
							CHANNELS 3 Xrotation Yrotation Zrotation
							JOINT RightShoulder
							{
								OFFSET -2.196100 4.412496 0.070690
								CHANNELS 3 Xrotation Yrotation Zrotation
								JOINT RightShoulder_split
								{
									OFFSET -2.196100 4.412496 0.070690
									CHANNELS 3 Xrotation Yrotation Zrotation
									JOINT RightArm
									{
										OFFSET -8.771282 -2.981682 -0.094208
										CHANNELS 3 Xrotation Yrotation Zrotation
										JOINT RightForeArm
										{
											OFFSET -8.494598 0.000000 0.000000
											CHANNELS 3 Xrotation Yrotation Zrotation
											JOINT RightHand
											{
												OFFSET -18.483803 0.000000 0.000001
												CHANNELS 3 Xrotation Yrotation Zrotation
												End Site
												{
													OFFSET 0 0 0
												}
											}
										}
									}
								}
							}
						}
					}
				}
			}
		}
	}
}
MOTION
Frames: 5
Frame Time: 0.03333333
-0.159509 32.723824 0.132877 0.000000 0.000000 0.000000 -32.356457 -84.839767 -32.269451 -18.151040 13.705765 12.976622 36.045763 -1.065200 3.640817 -14.405226 3.200031 -11.489049 -4.453875 0.089196 0.498534 0.000000 0.000000 0.000000 -25.483519 -84.457051 -25.837612 -10.580495 -21.342849 -12.232207 31.843377 8.905236 -11.054980 -15.309575 -2.827207 13.150250 -0.465090 0.013056 0.684524 0.000000 0.000000 0.000000 -34.322261 -83.906511 -35.049638 3.348122 0.457974 0.699951 3.606634 -0.181012 2.033141 0.496415 3.200276 -0.120642 0.000000 0.000000 0.000000 3.295073 -0.015560 1.599481 -6.132263 7.558641 -3.716779 2.971463 33.919908 -1.701095 0.000000 0.000000 0.000000 4.675024 0.267505 1.777432 0.768746 6.200547 0.056257 1.160643 0.832532 -0.456755 10.846845 -79.171031 -52.442158 -0.850834 -20.836554 0.768385 0.000000 0.000000 0.000000 5.432233 0.636502 1.333029 2.171566 1.554693 6.685599 3.003411 3.947662 0.084893 8.629044 26.093131 62.402705 1.351553 31.664289 0.147058 0.000000 0.000000 0.000000 
-0.145533 32.721207 0.137345 0.000000 0.000000 0.000000 -34.016179 -84.906799 -33.881843 -17.948255 13.704519 13.132472 36.327741 -1.232057 3.719176 -14.475679 3.228182 -10.941762 -4.095498 0.121416 0.352753 0.000000 0.000000 0.000000 -26.668994 -84.454224 -26.994941 -10.665966 -21.312728 -12.168630 31.996902 8.827866 -11.167689 -15.053633 -2.970917 13.244233 -0.511510 -0.015256 0.724233 0.000000 0.000000 0.000000 -35.225423 -83.889483 -36.041662 3.434795 0.407450 0.811585 3.596210 -0.192999 2.045238 0.537230 2.398651 0.017945 0.000000 0.000000 0.000000 3.271510 0.006901 1.611771 -6.239207 7.548991 -3.759411 2.923093 33.971848 -1.882773 0.000000 0.000000 0.000000 4.684376 0.255160 1.807746 0.741436 6.017028 -0.000122 1.197299 0.794137 -0.385997 11.497994 -79.332879 -52.008216 -1.198972 -21.361041 0.386190 0.000000 0.000000 0.000000 5.524074 0.671555 1.407492 2.230559 1.445371 6.732672 2.993259 3.718705 0.023358 9.268135 26.079704 61.977205 1.385362 31.918697 0.027316 0.000000 0.000000 0.000000 
-0.096276 32.714806 0.110931 0.000000 0.000000 0.000000 -35.402066 -84.900843 -35.290372 -17.938947 13.735755 13.344439 36.691503 -1.576447 3.936787 -14.694005 3.093650 -10.649780 -3.811958 0.159982 0.229892 0.000000 0.000000 0.000000 -28.417485 -84.336348 -28.733025 -10.586745 -21.330963 -11.966506 32.219379 8.816592 -11.379955 -14.935527 -3.167627 13.622764 -0.532688 -0.058907 0.664773 0.000000 0.000000 0.000000 -35.904624 -83.795814 -36.807401 3.580898 0.250493 1.041887 3.610100 -0.244405 2.036054 0.513860 1.747312 0.128817 0.000000 0.000000 0.000000 3.348720 -0.022769 1.661345 -6.326413 7.639673 -3.906585 2.975874 34.293584 -2.294500 0.000000 0.000000 0.000000 4.833696 0.195017 1.846602 0.763452 5.892879 -0.014307 1.194014 1.097992 -0.632062 14.934820 -79.613798 -48.980420 -1.303241 -22.272567 0.126247 0.000000 0.000000 0.000000 5.623188 0.635007 1.485451 2.316839 1.358899 6.669370 2.866875 3.820517 0.111961 10.064408 25.991173 61.562032 1.334010 32.953453 0.026520 0.000000 0.000000 0.000000 
-0.031484 32.696114 0.071953 0.000000 0.000000 0.000000 -36.126872 -84.838893 -36.076561 -18.095942 13.907688 13.541551 37.079335 -2.035662 4.261422 -15.037445 2.820194 -10.672860 -3.957057 0.167016 0.282141 0.000000 0.000000 0.000000 -30.379394 -84.217277 -30.674953 -10.470870 -21.312232 -11.719905 32.526351 8.886571 -11.650089 -14.981696 -3.325004 14.213605 -0.467522 -0.103205 0.524361 0.000000 0.000000 0.000000 -36.305338 -83.687016 -37.232010 3.734078 0.039231 1.293876 3.632881 -0.293568 2.017231 0.613471 1.265096 0.143283 0.000000 0.000000 0.000000 3.493128 -0.071682 1.739302 -6.329962 7.786172 -4.128171 3.106992 34.746385 -2.842033 0.000000 0.000000 0.000000 5.056961 0.129262 1.903314 0.809501 5.860198 0.052043 1.087475 1.542708 -0.981066 20.535076 -80.009082 -43.799643 -1.158761 -23.017519 0.021372 0.000000 0.000000 0.000000 5.714643 0.566320 1.553181 2.400176 1.355767 6.551619 2.768661 4.175539 0.219810 10.790733 25.871078 61.241819 1.189855 34.404547 0.150684 0.000000 0.000000 0.000000 
0.021195 32.674671 0.038339 0.000000 0.000000 0.000000 -36.662622 -84.899265 -36.643289 -18.194511 14.230484 13.614031 37.351023 -2.474337 4.714426 -15.511498 2.537947 -10.792973 -4.541447 0.136965 0.545131 0.000000 0.000000 0.000000 -31.933928 -84.221751 -32.169003 -10.340631 -21.201238 -11.478316 32.770066 9.005730 -11.998166 -15.268377 -3.433646 14.716717 -0.308015 -0.131453 0.342698 0.000000 0.000000 0.000000 -37.201179 -83.708449 -38.057227 3.857532 -0.136793 1.443518 3.658073 -0.280584 2.004723 0.859150 1.012844 0.137523 0.000000 0.000000 0.000000 3.671555 -0.078472 1.824155 -6.229905 7.964777 -4.345238 3.234330 35.245634 -3.430349 0.000000 0.000000 0.000000 5.267675 0.122102 1.969796 0.850909 5.901628 0.177807 0.837548 1.811218 -1.411915 26.749970 -80.446999 -37.766834 -0.812902 -23.422232 0.071238 0.000000 0.000000 0.000000 5.775048 0.523999 1.604368 2.457497 1.432106 6.505479 2.685475 4.643687 0.233140 11.236223 25.730342 61.081221 0.975579 35.876641 0.372580 0.000000 0.000000 0.000000 
